<svg xmlns="http://www.w3.org/2000/svg" width="270" height="150" viewBox="0 0 270 150"><circle fill="#4485C6" cx="135.6" cy="94.5" r="2.1"/><path fill="none" stroke="#E0EEFA" stroke-width="2" stroke-linecap="round" stroke-miterlimit="10" d="M73.9 91.8c-2.6-7.2 18.8-21.4 47.8-31.7s54.5-12.9 57.1-5.8"/><path fill="none" stroke="#E0EEFA" stroke-width="2" stroke-linecap="round" stroke-miterlimit="10" d="M83.7 87.6C82 82.7 99.6 72 123 63.6s43.9-11.2 45.6-6.4"/><path fill="none" stroke="#E0EEFA" stroke-width="1.6" stroke-linecap="round" stroke-miterlimit="10" d="M68.2 118.2l65.3-37.5M24.3 104.8l43.9 13.4-3.9 21.2"/><circle fill="#A7D0EF" cx="68.1" cy="118.2" r="2"/><circle fill="#A7D0EF" cx="64.2" cy="139.4" r="2"/><circle fill="#4485C6" cx="24.3" cy="104.8" r="1.7"/><path fill="none" stroke="#BEDCF4" stroke-width="1.6" stroke-linecap="round" stroke-miterlimit="10" d="M158.8 112.5l-23.2-17.8"/><path fill="none" stroke="#E0EEFA" stroke-width="1.6" stroke-linecap="round" stroke-miterlimit="10" d="M160.5 113.8l43.2 7.1M160.5 113.8l10.8 24.9"/><circle fill="#4485C6" cx="203.7" cy="120.9" r="2.4"/><circle fill="#A7D0EF" cx="171.3" cy="138.7" r="2.1"/><circle fill="#4485C6" cx="160.5" cy="113.7" r="2.1"/><circle fill="#A7D0EF" cx="177.5" cy="25.5" r="2.2"/><path fill="#A7D0EF" stroke="#4485C6" stroke-width="2" stroke-linejoin="round" stroke-miterlimit="10" d="M102.4 84.9c0 13.9 11.3 25.2 25.2 25.2s25.2-11.3 25.2-25.2-25.2-48.2-25.2-48.2-25.2 34.3-25.2 48.2z"/><path opacity=".5" fill="#4485C6" d="M127.7 36.8s-25.2 34.6-25.2 48.1 11.3 25.3 24.9 25.3c0 0-12.4-4.6-13.8-21-2.3-27.6 14.1-52.4 14.1-52.4z"/><g fill="#FFF"><path d="M134.4 103.4c-.3-.1-.7-.3-.8-.7-.2-.6 0-1.2.6-1.5 4.2-1.8 7.5-5.1 9.3-9.3.2-.6.9-.8 1.5-.6.6.2.8.9.6 1.5-2 4.7-5.7 8.5-10.5 10.5-.2.1-.4.1-.7.1zM145.6 89c-.9-.2-1.5-.9-1.5-1.8v-.5c.2-1 1.2-1.7 2.2-1.5.6.1 1.1.6 1.4 1.2.1.3.2.7.1 1-.2 1.1-1.2 1.8-2.2 1.6z"/></g><circle fill="#E0EEFA" cx="245.4" cy="81.1" r="2.1"/><circle fill="#4485C6" cx="193.2" cy="33.6" r="1.7"/><circle fill="#E0EEFA" cx="170.9" cy="37.6" r="1.5"/><circle fill="#E0EEFA" cx="229.9" cy="51" r="1.5"/><circle fill="#E0EEFA" cx="77.3" cy="64.2" r="2.1"/><circle fill="#A7D0EF" cx="86.8" cy="32.7" r="2.1"/><circle fill="#E0EEFA" cx="73.9" cy="34" r="1.5"/><g><circle fill="#A7D0EF" cx="102.1" cy="129.8" r="2.2"/><circle fill="#4485C6" cx="112.8" cy="124.9" r="2.1"/><circle fill="#4485C6" cx="47.6" cy="129.3" r=".8"/><circle fill="#4485C6" cx="110" cy="131.7" r=".8"/><circle fill="#4485C6" cx="94.6" cy="120.8" r=".8"/><circle fill="#4485C6" cx="52.2" cy="137.7" r="1.3"/><circle fill="#4485C6" cx="89.9" cy="127.2" r="1.3"/><circle fill="#E0EEFA" cx="35.2" cy="121.3" r="1.3"/><circle fill="#A7D0EF" cx="116" cy="138.9" r="1"/></g><g><circle fill="#A7D0EF" cx="193" cy="22.8" r="2.1"/><circle fill="#4485C6" cx="207.6" cy="40.2" r="1.5"/><circle fill="#4485C6" cx="240.2" cy="91.5" r="1.5"/><circle fill="#E0EEFA" cx="200.3" cy="37.8" r="1.5"/><circle fill="#4485C6" cx="233.9" cy="24.6" r=".8"/><circle fill="#4485C6" cx="216.9" cy="34.8" r=".8"/><circle fill="#4485C6" cx="236.5" cy="82.6" r=".8"/><circle fill="#4485C6" cx="229.8" cy="33.3" r="1.3"/><circle fill="#E0EEFA" cx="233.1" cy="9.9" r="1.3"/><circle fill="#A7D0EF" cx="225.2" cy="17.8" r="1.3"/></g><circle fill="#A7D0EF" cx="218.5" cy="53.8" r="1"/><g><circle fill="#4485C6" cx="56.6" cy="45.3" r="2.4"/><circle fill="#E0EEFA" cx="50.5" cy="27.6" r="2.1"/><circle fill="#E0EEFA" cx="43.3" cy="80.3" r="1.5"/><circle fill="#4485C6" cx="45" cy="45.2" r=".8"/><circle fill="#4485C6" cx="39.5" cy="58.4" r=".8"/><circle fill="#4485C6" cx="70.3" cy="52.8" r=".8"/><circle fill="#4485C6" cx="52.5" cy="56.9" r="1.3"/><circle fill="#E0EEFA" cx="44.2" cy="30.5" r="1.3"/><circle fill="#A7D0EF" cx="36.3" cy="38.5" r="1.3"/><circle fill="#A7D0EF" cx="45.6" cy="65.7" r="1"/></g><g><circle fill="#4485C6" cx="192.8" cy="68.2" r="1.4"/></g><g><path fill="none" stroke="#BEDCF4" stroke-width="1.6" stroke-linecap="round" stroke-miterlimit="10" d="M98.6 36.9l80.6 40"/><path fill="none" stroke="#E0EEFA" stroke-width="1.6" stroke-linecap="round" stroke-miterlimit="10" d="M180.7 77.8l55.4-17.7M180.7 77.8l27 18.1"/><circle fill="#4485C6" cx="236.8" cy="60" r="1.8"/><circle fill="#A7D0EF" cx="207.7" cy="95.9" r="2.1"/><g><circle fill="#4485C6" cx="98.6" cy="36.5" r="2.1"/></g><circle fill="#A7D0EF" cx="180.8" cy="77.7" r="2.1"/></g><path fill="none" stroke="#4485C6" stroke-width="2" stroke-linecap="round" stroke-miterlimit="10" d="M178.8 54.3C181.4 61.5 160 75.7 131 86s-54.5 13-57.1 5.8"/><path fill="none" stroke="#4485C6" stroke-width="2" stroke-linecap="round" stroke-miterlimit="10" d="M168.7 58.2c1.7 4.9-15.9 15.6-39.3 24s-43.9 11.2-45.6 6.4"/></svg>