<?xml version="1.0" encoding="utf-8"?>
<!-- Generator: Adobe Illustrator 18.1.1, SVG Export Plug-In . SVG Version: 6.00 Build 0)  -->
<svg version="1.1" id="Layer_1" xmlns="http://www.w3.org/2000/svg" xmlns:xlink="http://www.w3.org/1999/xlink" x="0px" y="0px"
	 viewBox="0 0 284 232" enable-background="new 0 0 284 232" xml:space="preserve">
<path fill="#1F8CED" d="M126.2,116.5c0-9,32.5-9,32.5,0s-7.3,16.3-16.3,16.3S126.2,125.5,126.2,116.5z"/>
<g>
	<path fill="#1F8CED" d="M124.3,137.8l13.6-15.9c0.9-1.1,2.3-1.7,3.8-1.7c1.2,0,2.3,0.4,3.2,1.2c1,0.9,1.6,2.1,1.7,3.4
		c0.1,1.3-0.3,2.6-1.2,3.6L127,149.9L124.3,137.8z"/>
	<g>
		<path fill="#FFFFFF" d="M141.7,120.5c1.1,0,2.1,0.4,3,1.1l0,0c1.9,1.6,2.2,4.5,0.5,6.5l-18,21.1l-2.5-11.2l13.5-15.8
			C139.1,121,140.4,120.5,141.7,120.5 M141.7,119.7L141.7,119.7c-1.6,0-3,0.7-4.1,1.9l-13.5,15.8l-0.2,0.3l0.1,0.4l2.5,11.2l0.3,1.5
			l1-1.1l18-21.1c0.9-1.1,1.4-2.5,1.3-3.9s-0.8-2.7-1.9-3.6C144.2,120.2,142.9,119.7,141.7,119.7L141.7,119.7z"/>
	</g>
</g>
<circle fill="#A5D1F7" cx="141.4" cy="125.2" r="2.2"/>
<ellipse transform="matrix(-0.9806 0.196 -0.196 -0.9806 277.8762 259.1139)" fill="#A5D1F7" cx="126.1" cy="143.3" rx="2" ry="5.5"/>
<path opacity="0.58" fill="none" stroke="#A5D1F7" stroke-linecap="round" stroke-linejoin="round" stroke-miterlimit="10" d="
	M150.6,143.8c-0.5,0.4-1,0.8-1.6,1.2c-4.2,2.3-9.5,0.8-11.8-3.4"/>
<path opacity="0.58" fill="none" stroke="#A5D1F7" stroke-linecap="round" stroke-linejoin="round" stroke-miterlimit="10" d="
	M153.4,136.4c0.1,1.4,0,2.7-0.5,4"/>
<path opacity="0.58" fill="none" stroke="#A5D1F7" stroke-linecap="round" stroke-linejoin="round" stroke-miterlimit="10" d="
	M144.5,149.8c-3.2,0-6.4-1.4-8.7-3.7"/>
<path opacity="0.58" fill="none" stroke="#A5D1F7" stroke-linecap="round" stroke-linejoin="round" stroke-miterlimit="10" d="
	M155.5,131.4c3.1,5.7,1.4,12.8-3.9,16.3"/>
<path opacity="0.49" fill="#A5D1F7" d="M152.9,113.9c-7.5,3.3-14.7,3.7-21.7,0L67,52.8h150.1L152.9,113.9z"/>
<ellipse fill="#A5D1F7" cx="142.1" cy="52.3" rx="75" ry="8.7"/>
<ellipse fill="#DFEFFD" cx="109.9" cy="222.8" rx="19" ry="2.1"/>
<ellipse fill="#DFEFFD" cx="170.6" cy="212.2" rx="12.8" ry="2.1"/>
<ellipse opacity="0.61" fill="#1F8CED" cx="110.6" cy="164.6" rx="14.3" ry="1.9"/>
<path fill="#A5D1F7" d="M87,188.8c0,13.2,10.7,23.9,23.9,23.9s23.9-10.7,23.9-23.9c0-6-4-14.9-9.4-23.9c0,0-5,1.4-14.8,1.4
	c-7.4,0-13.9-1.1-13.9-1.1C91.3,174.3,87,182.8,87,188.8z"/>
<circle opacity="0.6" fill="#1F8CED" cx="114" cy="72" r="2.1"/>
<circle opacity="0.6" fill="#1F8CED" cx="132.4" cy="68.9" r="2.1"/>
<circle fill="#1F8CED" cx="198.8" cy="42.8" r="2.1"/>
<circle opacity="0.6" fill="#1F8CED" cx="129.2" cy="82.9" r="2.1"/>
<circle opacity="0.6" fill="#1F8CED" cx="169.3" cy="88.9" r="2.1"/>
<circle opacity="0.6" fill="#1F8CED" cx="188.6" cy="69.7" r="2.1"/>
<circle opacity="0.6" fill="#1F8CED" cx="148.7" cy="103.8" r="2.1"/>
<circle opacity="0.6" fill="#1F8CED" cx="144.4" cy="78" r="3.1"/>
<circle opacity="0.6" fill="#1F8CED" cx="176.7" cy="80.1" r="1.3"/>
<circle opacity="0.6" fill="#1F8CED" cx="197.7" cy="65.3" r="1.3"/>
<circle opacity="0.6" fill="#1F8CED" cx="181.1" cy="71.6" r="1.3"/>
<circle opacity="0.6" fill="#1F8CED" cx="156.4" cy="66.8" r="1.3"/>
<circle fill="#1F8CED" cx="178.4" cy="24.1" r="1.3"/>
<circle opacity="0.6" fill="#1F8CED" cx="148.9" cy="95.1" r="1.3"/>
<circle opacity="0.6" fill="#1F8CED" cx="142.5" cy="89.1" r="0.8"/>
<circle opacity="0.6" fill="#1F8CED" cx="118.8" cy="91.4" r="1.6"/>
<circle opacity="0.6" fill="#1F8CED" cx="156.6" cy="91.9" r="1.3"/>
<circle opacity="0.6" fill="#1F8CED" cx="155.7" cy="82.9" r="1.3"/>
<circle opacity="0.6" fill="#1F8CED" cx="156.8" cy="78.6" r="1.1"/>
<circle fill="#1F8CED" cx="155.5" cy="16.2" r="1.1"/>
<circle opacity="0.6" fill="#1F8CED" cx="141.6" cy="101.7" r="1.1"/>
<circle fill="#1F8CED" cx="207" cy="51.9" r="1.3"/>
<circle opacity="0.6" fill="#1F8CED" cx="85.7" cy="65.3" r="1.3"/>
<circle opacity="0.6" fill="#1F8CED" cx="107.6" cy="83.7" r="1.3"/>
<circle opacity="0.6" fill="#1F8CED" cx="117.7" cy="81" r="1.1"/>
<circle opacity="0.6" fill="#1F8CED" cx="164.3" cy="79.9" r="1.1"/>
<circle opacity="0.6" fill="#1F8CED" cx="159.1" cy="102.8" r="1.1"/>
<circle opacity="0.6" fill="#1F8CED" cx="179.5" cy="66.2" r="1.1"/>
<circle opacity="0.6" fill="#1F8CED" cx="173.5" cy="77.8" r="1"/>
<circle opacity="0.6" fill="#1F8CED" cx="125" cy="72.4" r="1.1"/>
<circle opacity="0.6" fill="#1F8CED" cx="135.9" cy="92.1" r="1.1"/>
<circle opacity="0.6" fill="#1F8CED" cx="93.6" cy="68.7" r="2"/>
<circle opacity="0.6" fill="#1F8CED" cx="167.1" cy="70.1" r="2"/>
<circle opacity="0.6" fill="#1F8CED" cx="129.9" cy="103.1" r="3.1"/>
<ellipse fill="#DFEFFD" cx="142.1" cy="113.9" rx="9.6" ry="2.7"/>
<circle fill="#1F8CED" cx="165.4" cy="24.5" r="2.1"/>
<circle fill="#1F8CED" cx="95.3" cy="36" r="2.1"/>
<circle fill="#1F8CED" cx="165.4" cy="24.5" r="2.1"/>
<circle fill="#1F8CED" cx="145.9" cy="43.6" r="2.1"/>
<circle fill="#1F8CED" cx="120.7" cy="148.2" r="2.5"/>
<circle fill="#1F8CED" cx="115.4" cy="152.7" r="1.3"/>
<circle fill="#1F8CED" cx="110.8" cy="157.8" r="1.6"/>
<circle fill="#1F8CED" cx="108.6" cy="163.4" r="1.3"/>
<circle fill="#1F8CED" cx="83.5" cy="51.9" r="2.1"/>
<circle fill="#1F8CED" cx="119.7" cy="51.1" r="2.1"/>
<circle fill="#1F8CED" cx="169.5" cy="56.2" r="1.3"/>
<circle fill="#1F8CED" cx="192.3" cy="53.6" r="1.3"/>
<circle fill="#1F8CED" cx="129.1" cy="9.8" r="1"/>
<circle fill="#1F8CED" cx="125" cy="144.1" r="1.1"/>
<circle fill="#1F8CED" cx="156.7" cy="54.3" r="1.3"/>
<circle opacity="0.6" fill="#1F8CED" cx="134.6" cy="81.8" r="1.1"/>
<circle fill="#1F8CED" cx="97.9" cy="54.2" r="1.1"/>
<circle fill="#1F8CED" cx="109.9" cy="37.2" r="1.3"/>
<circle fill="#1F8CED" cx="122.4" cy="27.2" r="1.7"/>
<circle fill="#1F8CED" cx="136.8" cy="21.7" r="1.3"/>
<circle fill="#1F8CED" cx="130.1" cy="42" r="1.3"/>
<circle fill="#1F8CED" cx="162.1" cy="40" r="1.3"/>
<circle fill="#1F8CED" cx="182.9" cy="36.7" r="1.3"/>
<circle fill="#1F8CED" cx="149.1" cy="28.2" r="1.3"/>
<circle fill="#1F8CED" cx="147.3" cy="5.6" r="1.1"/>
<circle fill="#1F8CED" cx="110.1" cy="54.6" r="1.3"/>
<circle fill="#1F8CED" cx="138" cy="53.8" r="3.1"/>
<circle fill="#1F8CED" cx="177.5" cy="48.2" r="3.1"/>
<circle fill="#1F8CED" cx="109.3" cy="26.6" r="1.3"/>
<path opacity="0.26" fill="#1F8CED" d="M110.9,143.2c0,0-23.8,32.8-23.8,45.5c0,12.7,10.7,23.9,23.5,23.9c0,0-11.7-4.4-13-19.8
	C95.4,166.7,110.9,143.2,110.9,143.2z"/>
<g>
	<g>
		<g>
			<g>
				<g>
					<path fill="#DFEFFD" d="M170.6,155.2c0,0,18.8,25.8,18.8,35.8c0,10-8.4,18.8-18.5,18.8c0,0,9.2-3.4,10.2-15.6
						C182.7,173.6,170.6,155.2,170.6,155.2z"/>
					<path fill="none" stroke="#A5D1F7" stroke-width="1.6" stroke-linejoin="round" stroke-miterlimit="10" d="M165.8,161.3
						c2-3,4.7-6.2,4.7-6.2s18.8,25.5,18.8,35.8c0,10.4-8.4,18.8-18.8,18.8c-10.4,0-18.8-8.4-18.8-18.8c0-4.9,4.3-13.3,8.7-20.7"/>
				</g>
			</g>
		</g>
	</g>
</g>
<circle fill="#1F8CED" cx="122.8" cy="170.9" r="1.3"/>
<circle fill="#1F8CED" cx="116.7" cy="179.7" r="2.2"/>
<circle fill="#1F8CED" cx="129.1" cy="189.1" r="2.2"/>
<circle fill="#1F8CED" cx="114.6" cy="207.3" r="2.2"/>
<circle fill="#1F8CED" cx="125.7" cy="179.9" r="1.4"/>
<circle fill="#1F8CED" cx="110.8" cy="174.5" r="1.4"/>
<circle fill="#1F8CED" cx="114.8" cy="191.4" r="1.4"/>
<circle fill="#1F8CED" cx="122.2" cy="203.8" r="1.4"/>
<circle fill="#1F8CED" cx="120.8" cy="185.8" r="1"/>
<circle fill="#1F8CED" cx="115.9" cy="171" r="1"/>
<circle fill="#1F8CED" cx="110.8" cy="185.7" r="1"/>
<circle fill="#1F8CED" cx="128.3" cy="197.8" r="1"/>
<circle fill="#1F8CED" cx="121.4" cy="194.8" r="1"/>
<circle fill="#1F8CED" cx="114.6" cy="199" r="1.3"/>
<circle fill="#1F8CED" cx="106.6" cy="206.6" r="1"/>
<circle fill="#1F8CED" cx="97.6" cy="170.9" r="1.3"/>
<circle fill="#1F8CED" cx="103.6" cy="179.7" r="2.2"/>
<circle fill="#1F8CED" cx="104.2" cy="169.2" r="1.5"/>
<circle fill="#1F8CED" cx="91.2" cy="189.1" r="2.2"/>
<circle fill="#1F8CED" cx="105.9" cy="200.2" r="2.2"/>
<circle fill="#1F8CED" cx="94.6" cy="179.9" r="1.4"/>
<circle fill="#1F8CED" cx="105.5" cy="191.4" r="1.4"/>
<circle fill="#1F8CED" cx="98.1" cy="203.8" r="1.4"/>
<circle fill="#1F8CED" cx="99.5" cy="185.8" r="1"/>
<circle fill="#1F8CED" cx="92.1" cy="197.8" r="1"/>
<circle fill="#1F8CED" cx="98.9" cy="194.8" r="1"/>
<path fill="none" stroke="#1F8CED" stroke-width="1.6" stroke-linejoin="round" stroke-miterlimit="10" d="M120.8,157.9
	c6.6,10.3,13.9,23.6,13.9,30.9c0,13.2-10.7,23.9-23.9,23.9S87,202,87,188.8s23.9-45.6,23.9-45.6l2.2,3"/>
<circle opacity="0.6" fill="#1F8CED" cx="126.9" cy="92.1" r="1.1"/>
<circle opacity="0.6" fill="#1F8CED" cx="101.5" cy="73.5" r="1.1"/>
<circle opacity="0.6" fill="#1F8CED" cx="108.8" cy="67.8" r="1.1"/>
<circle opacity="0.6" fill="#1F8CED" cx="142.7" cy="69.2" r="1.1"/>
</svg>
